<svg viewBox="0 0 500 140" xmlns="http://www.w3.org/2000/svg">
  <defs>
    <linearGradient id="textGrad" x1="0" y1="1" x2="0" y2="0">
      <stop offset="0%"   stop-color="#c42128"/>
      <stop offset="57%"  stop-color="#c42128"/>
      <stop offset="57%"  stop-color="#ffffff"/>
      <stop offset="100%" stop-color="#ffffff"/>
    </linearGradient>
  </defs>
  <!-- White piece -->
  <g transform="translate(20, 20) scale(1.0)">
    <ellipse cx="50" cy="60" rx="43" ry="25" fill="#6f6f6f"/>
    <rect x="7" y="45" width="86" height="15" fill="#6f6f6f"/>
    <ellipse cx="50" cy="45" rx="42" ry="25" fill="#e9e9e9" stroke="#6f6f6f" stroke-width="2"/>
    <ellipse cx="50" cy="45" rx="30" ry="16.5" fill="none" stroke="#bababa" stroke-width="6.7"/>
    <ellipse cx="50" cy="45" rx="14" ry="8" fill="none" stroke="#bababa" stroke-width="3"/>
  </g>
  <!-- Müko text (paths from Rakkas font) -->
  <path
    fill="url(#textGrad)"
    stroke="#ffffff"
    stroke-width="1.5"
    paint-order="stroke fill"
    transform="translate(-50, 0)"
    d="M268.408 103.832L271.840 103.920L271.840 107L247.464 107L247.464 103.920L252.216 103.832L248.080 58.688L231.096 97.144L228.368 97.144L210.152 58.424L208.480 103.832L213.232 103.920L213.232 107L193.960 107L193.960 103.920L197.392 103.832L205.840 51.208L201 51.120L201 48.040L221.240 48.040L235.408 76.816L247.640 48.040L265.856 48.040L265.856 51.120L261.192 51.208L268.408 103.832ZM317.512 98.464L318.480 101.104L306.248 108.056Q303.432 106.560 302.112 103.964Q300.792 101.368 300.792 97.320L300.792 97.320L293.224 108.320Q284.952 108.320 280.992 104.316Q277.032 100.312 277.032 91.952L277.032 91.952L277.032 70.216L273.776 69.952L273.776 67.400L289.440 67.400L289.440 88.432Q289.440 92.392 291.508 94.548Q293.576 96.704 297.008 96.792L297.008 96.792L300.792 93.272L300.792 70.216L297.624 69.952L297.624 67.400L313.200 67.400L313.200 92.216Q313.200 95.472 313.596 97.056Q313.992 98.640 314.872 99.784L314.872 99.784L317.512 98.464ZM283.632 57.544L283.632 50.064L292.432 48.216L292.432 56.312L283.632 57.544ZM297.888 57.544L297.888 50.064L306.688 48.216L306.688 56.312L297.888 57.544ZM362.744 98.200L363.712 100.840L351.392 108.056Q345.848 103.568 342.328 94.152L342.328 94.152L341.360 91.424L335.640 93.888L335.552 104.184L338.808 104.448L338.808 107L319.888 107L319.888 104.448L323.144 104.184L322.704 51.472L319.360 52.176L318.480 49.624L334.760 44.696L335.992 46.808L335.728 79.720L347.432 65.816Q353.592 67.576 356.540 71.976Q359.488 76.376 359.488 83.680L359.488 83.680L351.480 87.112L352.008 88.168Q353.416 91.512 355.792 94.680Q358.168 97.848 360.368 99.520L360.368 99.520L362.744 98.200ZM335.728 83.944L335.640 90.632L347.520 85Q347.520 83.064 346.068 80.776Q344.616 78.488 342.592 77.960L342.592 77.960L335.728 83.944ZM385.624 66.080Q394.424 66.080 399.792 71.272Q405.160 76.464 405.160 86.056L405.160 86.056Q405.160 90.192 403.708 94.592Q402.256 98.992 399.440 102.336L399.440 102.336Q396.624 105.064 392.884 106.692Q389.144 108.320 385.008 108.320L385.008 108.320Q376.208 108.320 370.840 103.128Q365.472 97.936 365.472 88.344L365.472 88.344Q365.472 84.296 366.968 79.896Q368.464 75.496 371.280 72.152L371.280 72.152Q374.096 69.424 377.836 67.752Q381.576 66.080 385.624 66.080L385.624 66.080ZM378.144 84.120Q378.144 92.480 381.444 96.616Q384.744 100.752 391.168 101.544L391.168 101.544Q391.784 98.904 392.136 95.648Q392.488 92.392 392.488 90.280L392.488 90.280Q392.488 81.832 389.188 77.740Q385.888 73.648 379.552 72.856L379.552 72.856Q378.936 75.584 378.540 78.840Q378.144 82.096 378.144 84.120L378.144 84.120Z"
  />
  <!-- Black piece -->
  <g transform="translate(380, 20) scale(1.0)">
    <ellipse cx="50" cy="60" rx="43" ry="25" fill="#262626"/>
    <rect x="7" y="45" width="86" height="15" fill="#262626"/>
    <ellipse cx="50" cy="45" rx="42" ry="25" fill="#545454" stroke="#262626" stroke-width="2"/>
    <ellipse cx="50" cy="45" rx="30" ry="16.5" fill="none" stroke="#3f3f3f" stroke-width="6.7"/>
    <ellipse cx="50" cy="45" rx="14" ry="8" fill="none" stroke="#3f3f3f" stroke-width="3"/>
  </g>
</svg>
